<svg width="8" height="8" viewBox="0 0 8 8" fill="none" xmlns="http://www.w3.org/2000/svg">
<path d="M6.98041 5.65193H6.74113V2.98247C6.74113 1.87464 5.70126 0.958383 4.34833 0.806066V0.501433C4.34833 0.327918 4.16987 0.187378 3.94953 0.187378C3.72919 0.187378 3.55073 0.327918 3.55073 0.501433V0.806066C2.1978 0.958383 1.15793 1.87464 1.15793 2.98247V5.65193H0.918649C0.74218 5.65193 0.599609 5.76421 0.599609 5.90318V6.15442C0.599609 6.18897 0.635501 6.21723 0.679369 6.21723H2.83289C2.83289 6.70245 3.33338 7.09659 3.94953 7.09659C4.56567 7.09659 5.06617 6.70245 5.06617 6.21723H7.21969C7.26356 6.21723 7.29945 6.18897 7.29945 6.15442V5.90318C7.29945 5.76421 7.15688 5.65193 6.98041 5.65193ZM3.94953 6.5941C3.68532 6.5941 3.47097 6.42529 3.47097 6.21723H4.42809C4.42809 6.42529 4.21373 6.5941 3.94953 6.5941Z" fill="#DEE203"/>
</svg>
