<svg width="19" height="21" viewBox="0 0 19 21" fill="none" xmlns="http://www.w3.org/2000/svg">
<path d="M3.53161 16.7836L3.53156 16.7836C2.97964 16.8641 2.5603 17.3475 2.5603 17.9323V17.9331C2.55958 18.187 2.64258 18.4341 2.79645 18.636C3.10962 19.0438 3.43111 19.4451 3.76072 19.8397L4.1034 20.25H3.56884H1.88052H1.75908L1.68401 20.1545C1.57723 20.0188 1.46992 19.8805 1.36151 19.7399C0.960642 19.22 0.75 18.5796 0.75 17.933C0.75 16.4771 1.80145 15.2074 3.26998 14.993C7.91833 14.3137 11.1551 14.3754 15.7719 15.0143C17.2263 15.2153 18.2838 16.4666 18.2839 17.9151C18.2839 17.9152 18.2839 17.9153 18.2839 17.9153H18.0339C18.0344 18.5302 17.8224 19.1264 17.4338 19.603L3.53161 16.7836ZM3.53161 16.7836C7.98958 16.1323 11.0533 16.1879 15.5229 16.8067L3.53161 16.7836ZM10.9256 9.64191C10.479 9.82689 10.0003 9.9221 9.51695 9.9221C8.54071 9.9221 7.60446 9.53429 6.91416 8.84399C6.22386 8.15369 5.83605 7.21743 5.83605 6.2412C5.83605 5.26496 6.22386 4.32871 6.91416 3.63841C7.60446 2.94811 8.54071 2.5603 9.51695 2.5603C10.0003 2.5603 10.479 2.65551 10.9256 2.84049C11.3722 3.02547 11.7779 3.29661 12.1197 3.63841C12.4615 3.98021 12.7327 4.38599 12.9177 4.83258C13.1026 5.27917 13.1978 5.75782 13.1978 6.2412C13.1978 6.72458 13.1026 7.20323 12.9177 7.64982C12.7327 8.0964 12.4615 8.50218 12.1197 8.84399C11.7779 9.18579 11.3722 9.45692 10.9256 9.64191ZM9.51695 11.7324C10.9733 11.7324 12.37 11.1539 13.3998 10.1241C14.4296 9.09426 15.0081 7.69756 15.0081 6.2412C15.0081 4.78484 14.4296 3.38813 13.3998 2.35833C12.37 1.32854 10.9733 0.75 9.51695 0.75C8.06059 0.75 6.66388 1.32854 5.63408 2.35833C4.60428 3.38813 4.02575 4.78484 4.02575 6.2412C4.02575 7.69756 4.60428 9.09426 5.63408 10.1241C6.66388 11.1539 8.06059 11.7324 9.51695 11.7324Z" fill="black" stroke="black" stroke-width="0.5"/>
</svg>
