<svg width="7" height="8" viewBox="0 0 7 8" fill="none" xmlns="http://www.w3.org/2000/svg">
<path d="M2.87025 1.23423H4.12647C4.12647 1.06764 4.06029 0.90788 3.9425 0.790087C3.8247 0.672293 3.66494 0.606118 3.49836 0.606118C3.33177 0.606118 3.17201 0.672293 3.05422 0.790087C2.93642 0.90788 2.87025 1.06764 2.87025 1.23423ZM2.45151 1.23423C2.45151 0.956586 2.5618 0.690315 2.75812 0.493993C2.95444 0.297671 3.22072 0.187378 3.49836 0.187378C3.776 0.187378 4.04227 0.297671 4.23859 0.493993C4.43491 0.690315 4.54521 0.956586 4.54521 1.23423H6.63891C6.69443 1.23423 6.74769 1.25629 6.78695 1.29555C6.82622 1.33482 6.84828 1.38807 6.84828 1.4436C6.84828 1.49913 6.82622 1.55238 6.78695 1.59164C6.74769 1.63091 6.69443 1.65297 6.63891 1.65297H6.19755L5.69758 5.98441C5.66224 6.29059 5.51557 6.57309 5.28548 6.77816C5.05539 6.98324 4.75795 7.09656 4.44973 7.09659H2.54698C2.23877 7.09656 1.94132 6.98324 1.71123 6.77816C1.48114 6.57309 1.33448 6.29059 1.29913 5.98441L0.799159 1.65297H0.357807C0.302279 1.65297 0.249025 1.63091 0.209761 1.59164C0.170496 1.55238 0.148438 1.49913 0.148438 1.4436C0.148438 1.38807 0.170496 1.33482 0.209761 1.29555C0.249025 1.25629 0.302279 1.23423 0.357807 1.23423H2.45151ZM3.07962 2.90919C3.07962 2.85366 3.05756 2.8004 3.01829 2.76114C2.97903 2.72188 2.92578 2.69982 2.87025 2.69982C2.81472 2.69982 2.76146 2.72188 2.7222 2.76114C2.68294 2.8004 2.66088 2.85366 2.66088 2.90919V5.42163C2.66088 5.47715 2.68294 5.53041 2.7222 5.56967C2.76146 5.60894 2.81472 5.631 2.87025 5.631C2.92578 5.631 2.97903 5.60894 3.01829 5.56967C3.05756 5.53041 3.07962 5.47715 3.07962 5.42163V2.90919ZM4.12647 2.69982C4.07094 2.69982 4.01768 2.72188 3.97842 2.76114C3.93916 2.8004 3.9171 2.85366 3.9171 2.90919V5.42163C3.9171 5.47715 3.93916 5.53041 3.97842 5.56967C4.01768 5.60894 4.07094 5.631 4.12647 5.631C4.18199 5.631 4.23525 5.60894 4.27451 5.56967C4.31378 5.53041 4.33584 5.47715 4.33584 5.42163V2.90919C4.33584 2.85366 4.31378 2.8004 4.27451 2.76114C4.23525 2.72188 4.18199 2.69982 4.12647 2.69982Z" fill="#CC0808"/>
</svg>
