<svg width="25" height="23" viewBox="0 0 25 23" fill="none" xmlns="http://www.w3.org/2000/svg">
<path d="M24.0179 7.59924C23.3904 6.1208 22.4807 4.7776 21.3393 3.64408C20.2006 2.50783 18.8513 1.6023 17.3661 0.97768C15.8231 0.327745 14.1881 0 12.5 0C10.8119 0 9.1769 0.327745 7.63393 0.97768C6.14874 1.6023 4.7994 2.50783 3.66071 3.64408C2.51928 4.7776 1.60961 6.1208 0.982143 7.59924C0.329241 9.1352 0 10.7628 0 12.4432C0 16.1289 1.62667 19.6008 4.4615 21.9728L4.50893 22.0117C4.67076 22.145 4.87444 22.22 5.08371 22.22H19.9191C20.1283 22.22 20.332 22.145 20.4939 22.0117L20.5413 21.9728C23.3733 19.6008 25 16.1289 25 12.4432C25 10.7628 24.668 9.1352 24.0179 7.59924ZM19.4587 20.1091H5.54129C4.46316 19.1414 3.60147 17.9588 3.01216 16.6382C2.42284 15.3175 2.11906 13.8883 2.12054 12.4432C2.12054 9.68236 3.20033 7.08818 5.16183 5.13837C7.12333 3.18579 9.72935 2.1109 12.5 2.1109C15.2734 2.1109 17.8795 3.18579 19.8382 5.13837C21.7997 7.09096 22.8795 9.68514 22.8795 12.4432C22.8795 15.3762 21.6378 18.151 19.4587 20.1091ZM15.611 8.59636C15.5691 8.55501 15.5124 8.53181 15.4534 8.53181C15.3944 8.53181 15.3377 8.55501 15.2958 8.59636L12.9381 10.9433C12.4163 10.8045 11.8387 10.9378 11.4286 11.3461C11.2833 11.4904 11.168 11.6619 11.0894 11.8506C11.0108 12.0393 10.9703 12.2417 10.9703 12.446C10.9703 12.6503 11.0108 12.8526 11.0894 13.0414C11.168 13.2301 11.2833 13.4015 11.4286 13.5459C11.5736 13.6905 11.7458 13.8052 11.9354 13.8835C12.125 13.9618 12.3282 14.0021 12.5335 14.0021C12.7387 14.0021 12.942 13.9618 13.1316 13.8835C13.3212 13.8052 13.4934 13.6905 13.6384 13.5459C13.8327 13.353 13.9725 13.1125 14.0435 12.8487C14.1145 12.5848 14.1144 12.307 14.043 12.0432L16.4007 9.69625C16.4872 9.61015 16.4872 9.4685 16.4007 9.38239L15.611 8.59636ZM11.8862 5.7772H13.1138C13.2366 5.7772 13.3371 5.67721 13.3371 5.555V3.333C13.3371 3.21079 13.2366 3.1108 13.1138 3.1108H11.8862C11.7634 3.1108 11.6629 3.21079 11.6629 3.333V5.555C11.6629 5.67721 11.7634 5.7772 11.8862 5.7772ZM19.1406 11.8321V13.0542C19.1406 13.1765 19.2411 13.2764 19.3638 13.2764H21.596C21.7188 13.2764 21.8192 13.1765 21.8192 13.0542V11.8321C21.8192 11.7099 21.7188 11.6099 21.596 11.6099H19.3638C19.2411 11.6099 19.1406 11.7099 19.1406 11.8321ZM19.495 6.35492L18.6272 5.49112C18.5853 5.44977 18.5286 5.42657 18.4696 5.42657C18.4105 5.42657 18.3539 5.44977 18.3119 5.49112L16.7327 7.06318C16.6912 7.10494 16.6679 7.16134 16.6679 7.22011C16.6679 7.27888 16.6912 7.33528 16.7327 7.37704L17.6004 8.24084C17.6869 8.32695 17.8292 8.32695 17.9157 8.24084L19.495 6.66878C19.5815 6.58267 19.5815 6.44102 19.495 6.35492ZM6.69922 5.49112C6.65727 5.44977 6.60061 5.42657 6.54157 5.42657C6.48253 5.42657 6.42588 5.44977 6.38393 5.49112L5.51618 6.35492C5.47464 6.39668 5.45134 6.45308 5.45134 6.51185C5.45134 6.57062 5.47464 6.62702 5.51618 6.66878L7.09542 8.24084C7.18192 8.32695 7.32422 8.32695 7.41071 8.24084L8.27846 7.37704C8.36496 7.29094 8.36496 7.14928 8.27846 7.06318L6.69922 5.49112ZM5.52455 11.6099H3.29241C3.16964 11.6099 3.0692 11.7099 3.0692 11.8321V13.0542C3.0692 13.1765 3.16964 13.2764 3.29241 13.2764H5.52455C5.64732 13.2764 5.74777 13.1765 5.74777 13.0542V11.8321C5.74777 11.7099 5.64732 11.6099 5.52455 11.6099Z" fill="#0118E8"/>
</svg>
