<svg width="6" height="7" viewBox="0 0 6 7" fill="none" xmlns="http://www.w3.org/2000/svg">
<path d="M4.19478 1.05478C4.28397 0.96096 4.39031 0.886304 4.50765 0.835124C4.62499 0.783945 4.751 0.757257 4.8784 0.756604C5.0058 0.755951 5.13207 0.781345 5.24989 0.831319C5.36772 0.881292 5.47477 0.954854 5.56487 1.04775C5.65496 1.14065 5.7263 1.25104 5.77477 1.37255C5.82324 1.49405 5.84788 1.62426 5.84726 1.75564C5.84664 1.88702 5.82077 2.01698 5.77116 2.13799C5.72154 2.259 5.64916 2.36867 5.55819 2.46066L5.24637 2.78237L5.37688 2.92602C5.48223 3.04189 5.53974 3.19547 5.53727 3.35428C5.5348 3.51309 5.47252 3.66469 5.36362 3.77701L4.88263 4.27303C4.8499 4.30678 4.80552 4.32574 4.75924 4.32574C4.71296 4.32574 4.66857 4.30678 4.63585 4.27303C4.60312 4.23928 4.58474 4.19351 4.58474 4.14578C4.58474 4.09806 4.60312 4.05229 4.63585 4.01854L5.11684 3.52252C5.16169 3.47629 5.18734 3.41389 5.18838 3.3485C5.18943 3.28312 5.16577 3.21989 5.12243 3.17216L4.99945 3.03686L2.18482 5.93988C2.07844 6.04963 1.94537 6.12784 1.79958 6.1663L0.475528 6.51507C0.446192 6.52281 0.415407 6.52254 0.386202 6.51429C0.356996 6.50604 0.330375 6.4901 0.308956 6.46802C0.287537 6.44595 0.272057 6.41851 0.264039 6.38839C0.256022 6.35828 0.255742 6.32653 0.263227 6.29628L0.601988 4.93084C0.639278 4.78061 0.715065 4.64349 0.821408 4.53385L4.19478 1.05478Z" fill="#0118E8"/>
</svg>
