<svg width="18" height="18" viewBox="0 0 18 18" fill="none" xmlns="http://www.w3.org/2000/svg">
<path d="M7.52941 18H1.88235C1.36471 18 0.921412 17.8239 0.552471 17.4717C0.184157 17.1189 0 16.695 0 16.2V3.6C0 3.105 0.184157 2.6811 0.552471 2.3283C0.921412 1.9761 1.36471 1.8 1.88235 1.8H5.81176C5.98431 1.275 6.32157 0.8436 6.82353 0.5058C7.32549 0.1686 7.87451 0 8.47059 0C9.09804 0 9.65898 0.1686 10.1534 0.5058C10.6472 0.8436 10.9804 1.275 11.1529 1.8H15.0588C15.5765 1.8 16.0198 1.9761 16.3887 2.3283C16.757 2.6811 16.9412 3.105 16.9412 3.6V8.1H15.0588V3.6H13.1765V4.5C13.1765 4.995 12.9923 5.4186 12.624 5.7708C12.2551 6.1236 11.8118 6.3 11.2941 6.3H5.64706C5.12941 6.3 4.68643 6.1236 4.31812 5.7708C3.94918 5.4186 3.76471 4.995 3.76471 4.5V3.6H1.88235V16.2H7.52941V18ZM11.7647 14.5125L16.4235 10.0575C16.5961 9.8925 16.8157 9.81 17.0824 9.81C17.349 9.81 17.5686 9.8925 17.7412 10.0575C17.9137 10.2225 18 10.4325 18 10.6875C18 10.9425 17.9137 11.1525 17.7412 11.3175L12.4235 16.4025C12.2353 16.5825 12.0157 16.6725 11.7647 16.6725C11.5137 16.6725 11.2941 16.5825 11.1059 16.4025L8.42353 13.8375C8.25098 13.6725 8.16471 13.4625 8.16471 13.2075C8.16471 12.9525 8.25098 12.7425 8.42353 12.5775C8.59608 12.4125 8.81569 12.33 9.08235 12.33C9.34902 12.33 9.56863 12.4125 9.74118 12.5775L11.7647 14.5125ZM8.47059 3.6C8.73726 3.6 8.96094 3.5136 9.14165 3.3408C9.32173 3.1686 9.41177 2.955 9.41177 2.7C9.41177 2.445 9.32173 2.2311 9.14165 2.0583C8.96094 1.8861 8.73726 1.8 8.47059 1.8C8.20392 1.8 7.98055 1.8861 7.80047 2.0583C7.61976 2.2311 7.52941 2.445 7.52941 2.7C7.52941 2.955 7.61976 3.1686 7.80047 3.3408C7.98055 3.5136 8.20392 3.6 8.47059 3.6Z" fill="black"/>
</svg>
